<svg width="14" height="17" viewBox="0 0 14 17" fill="none" xmlns="http://www.w3.org/2000/svg">
<path d="M9.5085 4.74883C9.11055 4.74883 8.73913 4.80985 8.39424 4.93189C8.05466 5.05392 7.74425 5.17596 7.46304 5.298C7.18182 5.41473 6.93774 5.4731 6.73081 5.4731C6.51327 5.4731 6.27184 5.41738 6.00654 5.30596C5.74124 5.18923 5.45472 5.07515 5.14697 4.96372C4.84453 4.8523 4.52087 4.79658 4.17598 4.79658C3.52334 4.79658 2.89458 4.97433 2.2897 5.32983C1.68481 5.68534 1.1887 6.21063 0.801368 6.90571C0.41403 7.6008 0.220362 8.45772 0.220362 9.47647C0.220362 10.1132 0.294646 10.7499 0.443213 11.3866C0.591781 12.0233 0.790756 12.6256 1.04014 13.1933C1.28952 13.7611 1.56543 14.2625 1.86787 14.6976C2.26051 15.2441 2.64255 15.7137 3.01397 16.1063C3.39069 16.4989 3.82578 16.6953 4.31924 16.6953C4.6429 16.6953 4.92412 16.6422 5.16289 16.5361C5.40166 16.43 5.65369 16.3212 5.91899 16.2098C6.1896 16.1036 6.52653 16.0506 6.92979 16.0506C7.23753 16.0506 7.49487 16.0824 7.70181 16.1461C7.90874 16.2098 8.0971 16.2814 8.26689 16.361C8.44199 16.4459 8.62505 16.5202 8.81606 16.5838C9.00708 16.6475 9.23789 16.6793 9.5085 16.6793C9.864 16.6793 10.1824 16.5838 10.4636 16.3928C10.7501 16.2071 11.0127 15.9657 11.2515 15.6686C11.4956 15.3714 11.7317 15.061 11.9599 14.7374C12.2092 14.3712 12.4109 14.021 12.5647 13.6868C12.7239 13.3472 12.8407 13.0713 12.9149 12.859C12.9892 12.6415 13.029 12.5221 13.0343 12.5009C13.0184 12.4956 12.9017 12.4372 12.6841 12.3258C12.4719 12.209 12.2278 12.026 11.9519 11.7766C11.6813 11.5272 11.4425 11.2009 11.2356 10.7977C11.034 10.3944 10.9332 9.90094 10.9332 9.31729C10.9332 8.80791 11.0127 8.37017 11.1719 8.00405C11.3364 7.63263 11.5274 7.32754 11.745 7.08877C11.9625 6.84469 12.1562 6.65898 12.326 6.53164C12.5011 6.4043 12.6019 6.33267 12.6284 6.31675C12.3631 5.93472 12.0739 5.63758 11.7609 5.42534C11.4478 5.2131 11.1401 5.05923 10.8376 4.96372C10.5352 4.86821 10.2646 4.80985 10.0258 4.78862C9.79237 4.76209 9.61992 4.74883 9.5085 4.74883ZM8.95137 3.45947C9.19544 3.16764 9.39442 2.83071 9.54829 2.44868C9.70216 2.06135 9.7791 1.6634 9.7791 1.25483C9.7791 1.1381 9.77114 1.03464 9.75522 0.944434C9.35728 0.960352 8.94076 1.07974 8.50566 1.30259C8.07588 1.52544 7.72038 1.804 7.43916 2.13828C7.211 2.39297 7.00938 2.71133 6.83428 3.09336C6.65918 3.47539 6.57163 3.86803 6.57163 4.27129C6.57163 4.33496 6.57428 4.39333 6.57959 4.44639C6.5902 4.49945 6.59816 4.53659 6.60347 4.55781C6.67244 4.57373 6.74408 4.58169 6.81836 4.58169C7.17386 4.58169 7.55059 4.47557 7.94854 4.26333C8.35179 4.05109 8.68607 3.78314 8.95137 3.45947Z" fill="white" fill-opacity="0.85"/>
</svg>
